<svg width="286" height="117" viewBox="0 0 286 117" fill="none" xmlns="http://www.w3.org/2000/svg">
<g filter="url(#filter0_dd_6902_64806)">
<path d="M55.3798 94.7343C46.7218 94.4075 29.3823 93.7529 3.36133 92.7707C3.70769 83.5951 4.39864 65.291 5.43417 37.8584C11.2218 38.0768 22.7972 38.5138 40.1602 39.1692C40.2703 36.2518 40.4888 30.4642 40.8156 21.8062C35.028 21.5877 23.4526 21.1508 6.08959 20.4953C6.19794 17.625 6.31606 14.4959 6.44395 11.108C6.57184 7.72011 6.67219 5.06155 6.74502 3.13232C18.3204 3.56927 35.6599 4.22381 58.7635 5.09593C58.4349 13.801 57.7795 31.164 56.7972 57.185C51.0095 56.9665 39.4577 56.5305 22.1418 55.8768C22.0334 58.7471 21.8158 64.5113 21.489 73.1692C27.2767 73.3877 38.8285 73.8238 56.1445 74.4774C56.0166 77.8653 55.7617 84.6176 55.3798 94.7343Z" fill="url(#paint0_radial_6902_64806)"/>
<path d="M82.1443 95.7446C79.7445 95.654 74.9214 95.4719 67.6751 95.1984C67.8385 90.8694 68.1662 82.1879 68.6582 69.1539C70.1169 69.2089 73.0107 69.3182 77.3397 69.4816C77.4303 67.0818 77.6115 62.2823 77.8832 55.083C76.4246 55.0279 73.5307 54.9187 69.2017 54.7553C69.3474 50.8968 69.6387 43.1799 70.0756 31.6046C72.4754 31.6952 77.2985 31.8772 84.5448 32.1508C84.4169 35.5387 84.162 42.291 83.7802 52.4076C86.6505 52.516 92.4381 52.7344 101.143 53.063C101.271 49.6751 101.526 42.9229 101.908 32.8062C104.308 32.8968 109.107 33.078 116.306 33.3497C116.161 37.2082 115.869 44.9251 115.433 56.5004C114.021 56.4471 111.127 56.3379 106.751 56.1727C106.66 58.5725 106.479 63.372 106.208 70.5713C107.666 70.6264 110.56 70.7356 114.889 70.899C114.724 75.2751 114.396 83.9566 113.906 96.9435C111.506 96.8529 106.707 96.6718 99.5073 96.4C99.6529 92.5416 99.9442 84.8247 100.381 73.2493C97.4638 73.1392 91.6761 72.9207 83.0182 72.5939C82.8725 76.4523 82.5812 84.1692 82.1443 95.7446Z" fill="url(#paint1_radial_6902_64806)"/>
<path d="M174.281 99.2226C171.364 99.1125 165.576 98.894 156.918 98.5672C157.154 92.309 157.627 79.7925 158.336 61.0179C159.794 61.0729 162.688 61.1822 167.017 61.3456C167.109 58.8988 167.292 54.0757 167.563 46.8764C166.105 46.8213 163.211 46.7121 158.882 46.5487C159.118 40.2905 159.591 27.7505 160.302 8.92882C163.172 9.03717 168.96 9.25565 177.665 9.58425C177.446 15.3719 177.009 26.9473 176.354 44.3103C179.224 44.4186 185.012 44.6371 193.717 44.9657C193.936 39.178 194.372 27.6027 195.028 10.2397C197.898 10.348 203.662 10.5656 212.32 10.8924C212.084 17.1506 211.611 29.6906 210.9 48.5123C209.489 48.459 206.595 48.3498 202.219 48.1846C202.128 50.5844 201.946 55.4074 201.673 62.6538C203.131 62.7088 206.025 62.8181 210.354 62.9815C210.118 69.2397 209.645 81.7561 208.937 100.531C206.066 100.422 200.302 100.205 191.644 99.878C191.863 94.0903 192.3 82.515 192.955 65.152C190.038 65.0419 184.25 64.8234 175.592 64.4966C175.374 70.2842 174.937 81.8596 174.281 99.2226Z" fill="url(#paint2_radial_6902_64806)"/>
<path d="M241.323 29.375C241.195 32.7629 240.94 39.5152 240.559 49.6319C243.429 49.7402 249.217 49.9587 257.922 50.2873C258.049 46.8994 258.304 40.1471 258.686 30.0304C255.769 29.9203 249.981 29.7018 241.323 29.375ZM238.595 101.65C235.678 101.54 229.89 101.322 221.232 100.995C221.795 86.0787 222.923 56.1993 224.616 11.3566C233.274 11.6834 250.613 12.3379 276.634 13.3202C276.488 17.1786 276.216 24.4014 275.816 34.9886C275.415 45.6229 274.996 56.7042 274.561 68.2325C270.703 68.0868 265.409 67.887 258.68 67.633C251.952 67.379 245.693 67.1428 239.906 66.9243C239.614 74.6412 239.178 86.2165 238.595 101.65Z" fill="url(#paint3_radial_6902_64806)"/>
<path d="M55.3243 96.2038L56.7939 96.2593L56.8493 94.7898L57.614 74.5329L57.6695 73.0634L56.1999 73.0079L23.014 71.7552L23.5558 57.4018L56.7417 58.6545L58.2113 58.71L58.2668 57.2405L60.233 5.1514L60.2885 3.68186L58.819 3.62639L6.80049 1.66278L5.33095 1.60731L5.27548 3.07685L4.97441 11.0525L4.62005 20.4399L4.56458 21.9094L6.03412 21.9649L39.2906 23.2203L38.7461 37.6442L5.48964 36.3888L4.0201 36.3334L3.96463 37.8029L1.89179 92.7152L1.83631 94.1847L3.30586 94.2402L55.3243 96.2038ZM82.0888 97.2141L83.5583 97.2696L83.6138 95.8001L84.4322 74.1189L98.8562 74.6634L98.0377 96.3445L97.9823 97.8141L99.4518 97.8696L113.85 98.4131L115.32 98.4686L115.375 96.999L116.359 70.9545L116.414 69.4849L114.944 69.4295L107.733 69.1572L108.165 57.6977L115.377 57.9699L116.847 58.0254L116.902 56.5559L117.776 33.4052L117.831 31.9356L116.362 31.8802L101.963 31.3367L100.494 31.2812L100.438 32.7507L99.7291 51.538L85.3052 50.9936L86.0144 32.2062L86.0698 30.7367L84.6003 30.6812L70.1311 30.135L68.6616 30.0796L68.6061 31.5491L67.7322 54.6998L67.6767 56.1693L69.1463 56.2248L76.3582 56.4971L75.9257 67.9566L68.7137 67.6843L67.2441 67.6289L67.1887 69.0984L66.2055 95.1429L66.1501 96.6125L67.6196 96.6679L82.0888 97.2141ZM174.226 100.692L175.695 100.748L175.751 99.2781L177.006 66.0216L191.43 66.5661L190.175 99.8225L190.119 101.292L191.589 101.348L208.881 102L210.351 102.056L210.406 100.586L211.824 63.037L211.879 61.5674L210.41 61.5119L203.198 61.2397L203.633 49.7096L210.845 49.9818L212.314 50.0373L212.37 48.5678L213.79 10.9479L213.845 9.47836L212.376 9.42289L195.083 8.77013L193.614 8.71465L193.558 10.1842L192.303 43.4407L177.879 42.8962L179.134 9.63972L179.19 8.17018L177.72 8.1147L160.357 7.45928L158.888 7.40381L158.832 8.87335L157.412 46.4932L157.357 47.9628L158.826 48.0182L166.038 48.2905L165.603 59.8206L158.391 59.5483L156.922 59.4929L156.866 60.9624L155.449 98.5117L155.393 99.9812L156.863 100.037L174.226 100.692ZM238.539 103.12L240.009 103.175L240.064 101.706L240.829 81.4489L241.32 68.4493L258.625 69.1025L274.506 69.702L275.975 69.7575L276.031 68.2879L277.286 35.0441L278.104 13.3756L278.159 11.9061L276.69 11.8506L224.671 9.88701L223.202 9.83154L223.146 11.3011L219.762 100.939L219.707 102.409L221.176 102.464L238.539 103.12ZM242.084 48.2178L242.737 30.9L257.161 31.4445L256.507 48.7623L242.084 48.2178Z" stroke="white" stroke-width="2.94118"/>
</g>
<defs>
<filter id="filter0_dd_6902_64806" x="0.311523" y="0.0825195" width="285.255" height="116.382" filterUnits="userSpaceOnUse" color-interpolation-filters="sRGB">
<feFlood flood-opacity="0" result="BackgroundImageFix"/>
<feColorMatrix in="SourceAlpha" type="matrix" values="0 0 0 0 0 0 0 0 0 0 0 0 0 0 0 0 0 0 127 0" result="hardAlpha"/>
<feOffset dx="5.88235" dy="11.7647"/>
<feComposite in2="hardAlpha" operator="out"/>
<feColorMatrix type="matrix" values="0 0 0 0 0.346067 0 0 0 0 0.054375 0 0 0 0 0.483333 0 0 0 1 0"/>
<feBlend mode="normal" in2="BackgroundImageFix" result="effect1_dropShadow_6902_64806"/>
<feColorMatrix in="SourceAlpha" type="matrix" values="0 0 0 0 0 0 0 0 0 0 0 0 0 0 0 0 0 0 127 0" result="hardAlpha"/>
<feOffset dx="2.94118" dy="5.88235"/>
<feComposite in2="hardAlpha" operator="out"/>
<feColorMatrix type="matrix" values="0 0 0 0 0.469583 0 0 0 0 0.165885 0 0 0 0 0.6125 0 0 0 1 0"/>
<feBlend mode="normal" in2="effect1_dropShadow_6902_64806" result="effect2_dropShadow_6902_64806"/>
<feBlend mode="normal" in="SourceGraphic" in2="effect2_dropShadow_6902_64806" result="shape"/>
</filter>
<radialGradient id="paint0_radial_6902_64806" cx="0" cy="0" r="1" gradientUnits="userSpaceOnUse" gradientTransform="translate(143.835 66.551) rotate(92.1618) scale(43.5 206.241)">
<stop offset="0.317708" stop-color="#9E51AA" stop-opacity="0.6"/>
<stop offset="1" stop-color="#600070"/>
</radialGradient>
<radialGradient id="paint1_radial_6902_64806" cx="0" cy="0" r="1" gradientUnits="userSpaceOnUse" gradientTransform="translate(143.835 66.551) rotate(92.1618) scale(43.5 206.241)">
<stop offset="0.317708" stop-color="#9E51AA" stop-opacity="0.6"/>
<stop offset="1" stop-color="#600070"/>
</radialGradient>
<radialGradient id="paint2_radial_6902_64806" cx="0" cy="0" r="1" gradientUnits="userSpaceOnUse" gradientTransform="translate(143.835 66.551) rotate(92.1618) scale(43.5 206.241)">
<stop offset="0.317708" stop-color="#9E51AA" stop-opacity="0.6"/>
<stop offset="1" stop-color="#600070"/>
</radialGradient>
<radialGradient id="paint3_radial_6902_64806" cx="0" cy="0" r="1" gradientUnits="userSpaceOnUse" gradientTransform="translate(143.835 66.551) rotate(92.1618) scale(43.5 206.241)">
<stop offset="0.317708" stop-color="#9E51AA" stop-opacity="0.6"/>
<stop offset="1" stop-color="#600070"/>
</radialGradient>
</defs>
</svg>
